<?xml version="1.0" encoding="UTF-8"?>
<svg width="145px" height="99px" viewBox="0 0 145 99" version="1.1" xmlns="http://www.w3.org/2000/svg" xmlns:xlink="http://www.w3.org/1999/xlink">

    <g stroke="none" stroke-width="1" fill="none" fill-rule="evenodd">
        <g >
            <path d="M135.4746,59.371 C134.3186,59.371 133.2296,59.642 132.2536,60.113 L130.9036,60.113 C131.9436,58.421 132.5476,56.46 132.5476,54.362 C132.5476,48.026 127.1206,42.89 120.4246,42.89 C119.6766,42.89 118.9476,42.963 118.2356,43.086 C116.0176,37.659 110.6926,33.832 104.4686,33.832 C102.2146,33.832 100.0856,34.348 98.1716,35.245 C98.9876,32.754 99.4356,30.096 99.4356,27.331 C99.4356,13.297 88.0586,1.92 74.0246,1.92 C62.4806,1.92 52.7416,9.619 49.6466,20.161 C47.1666,18.31 44.1016,17.202 40.7706,17.202 C32.5556,17.202 25.8956,23.862 25.8956,32.077 C25.8956,32.181 25.9096,32.281 25.9116,32.385 L4.3526,32.385 L4.3526,80.73 L70.6026,80.73 L70.6026,66.498 L89.9166,66.498 C89.9056,66.67 89.8906,66.842 89.8906,67.017 C89.8906,70.749 92.6726,73.823 96.2756,74.297 L96.2756,75.109 L135.4746,75.109 L135.4746,74.219 C139.5746,74.219 142.8976,70.894 142.8976,66.795 C142.8976,62.694 139.5746,59.371 135.4746,59.371" fill="#FFFFFF"></path>
            <path d="M134.8965,57.3898 C140.0455,57.3898 144.2345,61.5888 144.2345,66.7508 C144.2345,71.9128 140.0455,76.1118 134.8965,76.1118 L98.3505,76.1118 C93.3655,76.1118 89.2095,72.4978 88.3455,67.7458 L74.5385,67.7458 L74.5385,79.8718 C74.5385,82.0978 72.2715,84.0798 70.0345,84.0798 L48.3375,84.0798 C45.9425,92.5308 47.2675,93.8628 60.9085,93.9068 L61.6365,93.9068 L61.6365,93.9088 L61.6375,93.9088 L61.6375,98.4108 L44.4365,98.4108 L31.1285,98.4108 L12.9015,98.4108 L12.9015,93.9088 L12.9025,93.9088 L12.9025,93.9068 L13.6255,93.9068 C27.3355,93.8628 30.4625,92.5278 28.0705,84.0798 L5.6215,84.0798 L4.0505,84.0798 C1.8085,84.0798 0.0005,82.0978 0.0005,79.8718 L0.0005,33.8588 C0.0005,32.5828 0.5985,31.3978 1.5185,30.6008 C2.2125,29.9998 3.0845,29.6148 4.0485,29.6148 L25.2075,29.6148 C25.2855,29.5948 25.3615,29.5688 25.4395,29.5498 C25.7905,21.6588 32.3005,15.3498 40.2545,15.3498 C43.5785,15.3498 46.7245,16.4378 49.3075,18.4478 C52.6865,7.4848 62.6885,-0.0002 74.3125,-0.0002 C88.7615,-0.0002 100.5175,11.7888 100.5175,26.2788 C100.5175,28.5428 100.2185,30.7958 99.6275,33.0048 C101.1775,32.5648 102.7735,32.3418 104.3965,32.3418 C111.0275,32.3418 116.8105,36.0298 119.8275,41.4648 C119.9105,41.4638 119.9925,41.4558 120.0755,41.4558 C127.5465,41.4558 133.6255,47.5508 133.6255,55.0428 C133.6255,55.8708 133.5485,56.6948 133.3955,57.5108 C133.8895,57.4298 134.3905,57.3898 134.8965,57.3898 Z M134.8965,73.5878 C138.6535,73.5878 141.7095,70.5208 141.7095,66.7508 C141.7095,62.9808 138.6535,59.9138 134.8965,59.9138 C133.9275,59.9138 132.9835,60.1198 132.0895,60.5258 L129.3125,61.7898 L130.3845,58.9338 C130.8605,57.6678 131.1015,56.3588 131.1015,55.0428 C131.1015,48.9428 126.1555,43.9808 120.0755,43.9808 C114.8875,43.9808 110.4685,47.5258 109.3275,52.6018 L108.8135,54.8868 L107.1885,53.2008 C106.1555,52.1308 104.7735,51.5418 103.2955,51.5418 C100.3065,51.5418 97.8745,53.9838 97.8745,56.9838 L97.8815,57.1228 L97.9055,58.1838 L96.8655,58.3888 C93.2935,59.0938 90.7035,62.2588 90.7035,65.9148 C90.7035,70.1458 94.1335,73.5878 98.3505,73.5878 L134.8965,73.5878 Z M70.0805,29.6188 C72.3025,29.6468 74.5385,31.6288 74.5385,33.8588 L74.5385,65.2218 L88.2075,65.2218 C88.4945,60.9998 91.3755,57.3798 95.3915,56.1578 C95.8055,52.1518 99.1925,49.0178 103.2955,49.0178 C104.7785,49.0178 106.1945,49.4208 107.4245,50.1768 C109.0435,45.8968 112.6705,42.7758 117.0765,41.7898 C114.3755,37.6278 109.7055,34.8658 104.3965,34.8658 C102.2445,34.8658 100.1455,35.3238 98.1605,36.2278 L95.3835,37.4908 L96.4565,34.6348 C97.4755,31.9178 97.9935,29.1068 97.9935,26.2788 C97.9935,13.1808 87.3705,2.5248 74.3125,2.5248 C63.1705,2.5248 53.6785,10.1378 51.2285,21.0388 L50.7155,23.3228 L49.0895,21.6388 C46.7465,19.2108 43.6085,17.8738 40.2545,17.8738 C33.6705,17.8738 28.2795,23.0878 27.9645,29.6148 L70.0355,29.6148 C70.0435,29.6148 70.0535,29.6158 70.0645,29.6168 C70.0695,29.6168 70.0745,29.6188 70.0805,29.6188 Z M68.7185,78.3448 L68.7185,35.3508 L63.2965,35.3508 L5.6485,35.3508 L5.6485,78.3448 L12.4095,78.3448 L68.7185,78.3448 Z" fill="#0078D7"></path>
            <polygon fill="#0078D7" points="33.0791 67.4247 23.3081 57.6537 25.0931 55.8687 33.0791 63.8547 51.9231 45.0107 53.7081 46.7957"></polygon>
        </g>
    </g>
</svg>